%TF.GenerationSoftware,KiCad,Pcbnew,(5.1.10-1-10_14)*%
%TF.CreationDate,2021-05-17T23:03:08-04:00*%
%TF.ProjectId,UBMP4.1,55424d50-342e-4312-9e6b-696361645f70,0*%
%TF.SameCoordinates,Original*%
%TF.FileFunction,Copper,L2,Bot*%
%TF.FilePolarity,Positive*%
%FSLAX46Y46*%
G04 Gerber Fmt 4.6, Leading zero omitted, Abs format (unit mm)*
G04 Created by KiCad (PCBNEW (5.1.10-1-10_14)) date 2021-05-17 23:03:08*
%MOMM*%
%LPD*%
G01*
G04 APERTURE LIST*
%TA.AperFunction,ComponentPad*%
%ADD10R,1.800000X1.800000*%
%TD*%
%TA.AperFunction,ComponentPad*%
%ADD11C,1.800000*%
%TD*%
%TA.AperFunction,ComponentPad*%
%ADD12C,2.000000*%
%TD*%
%TA.AperFunction,ComponentPad*%
%ADD13R,2.000000X2.000000*%
%TD*%
%TA.AperFunction,ComponentPad*%
%ADD14O,1.600000X1.600000*%
%TD*%
%TA.AperFunction,ComponentPad*%
%ADD15C,1.600000*%
%TD*%
%TA.AperFunction,ComponentPad*%
%ADD16R,1.700000X1.700000*%
%TD*%
%TA.AperFunction,ComponentPad*%
%ADD17O,1.700000X1.700000*%
%TD*%
%TA.AperFunction,ComponentPad*%
%ADD18O,1.700000X0.900000*%
%TD*%
%TA.AperFunction,ComponentPad*%
%ADD19O,2.400000X0.900000*%
%TD*%
%TA.AperFunction,ComponentPad*%
%ADD20C,0.700000*%
%TD*%
%TA.AperFunction,ComponentPad*%
%ADD21R,1.600000X1.600000*%
%TD*%
%TA.AperFunction,ComponentPad*%
%ADD22R,1.300000X1.300000*%
%TD*%
%TA.AperFunction,ComponentPad*%
%ADD23C,1.300000*%
%TD*%
%TA.AperFunction,ComponentPad*%
%ADD24C,6.400000*%
%TD*%
%TA.AperFunction,ComponentPad*%
%ADD25O,2.400000X2.400000*%
%TD*%
%TA.AperFunction,ComponentPad*%
%ADD26C,2.400000*%
%TD*%
%TA.AperFunction,ViaPad*%
%ADD27C,0.812800*%
%TD*%
%TA.AperFunction,Conductor*%
%ADD28C,0.635000*%
%TD*%
%TA.AperFunction,Conductor*%
%ADD29C,1.270000*%
%TD*%
%TA.AperFunction,Conductor*%
%ADD30C,0.304800*%
%TD*%
%TA.AperFunction,Conductor*%
%ADD31C,0.889000*%
%TD*%
%TA.AperFunction,Conductor*%
%ADD32C,0.203200*%
%TD*%
G04 APERTURE END LIST*
D10*
%TO.P,D2,2*%
%TO.N,Net-(D2-Pad2)*%
X188595000Y-100330000D03*
D11*
%TO.P,D2,1*%
%TO.N,Net-(D2-Pad1)*%
X188595000Y-102870000D03*
%TD*%
D10*
%TO.P,D6,2*%
%TO.N,Net-(D6-Pad2)*%
X126365000Y-109855000D03*
D11*
%TO.P,D6,1*%
%TO.N,GND*%
X123825000Y-109855000D03*
%TD*%
D10*
%TO.P,D5,2*%
%TO.N,Net-(D5-Pad2)*%
X144780000Y-109855000D03*
D11*
%TO.P,D5,1*%
%TO.N,GND*%
X142240000Y-109855000D03*
%TD*%
D10*
%TO.P,D4,2*%
%TO.N,Net-(D4-Pad2)*%
X144780000Y-93345000D03*
D11*
%TO.P,D4,1*%
%TO.N,GND*%
X142240000Y-93345000D03*
%TD*%
D10*
%TO.P,D3,2*%
%TO.N,Net-(D3-Pad2)*%
X126365000Y-93345000D03*
D11*
%TO.P,D3,1*%
%TO.N,GND*%
X123825000Y-93345000D03*
%TD*%
D10*
%TO.P,D1,2*%
%TO.N,Net-(D1-Pad2)*%
X109220000Y-111125000D03*
D11*
%TO.P,D1,1*%
%TO.N,Net-(D1-Pad1)*%
X109220000Y-108585000D03*
%TD*%
D12*
%TO.P,LS1,2*%
%TO.N,GND*%
X180340000Y-102790000D03*
D13*
%TO.P,LS1,1*%
%TO.N,Net-(LS1-Pad1)*%
X180340000Y-97790000D03*
%TD*%
D14*
%TO.P,R9,2*%
%TO.N,Net-(D4-Pad2)*%
X156845000Y-117475000D03*
D15*
%TO.P,R9,1*%
%TO.N,Net-(R17-Pad2)*%
X156845000Y-107315000D03*
%TD*%
D14*
%TO.P,R11,2*%
%TO.N,Net-(D6-Pad2)*%
X161925000Y-117475000D03*
D15*
%TO.P,R11,1*%
%TO.N,Net-(R11-Pad1)*%
X161925000Y-107315000D03*
%TD*%
D16*
%TO.P,H9,1*%
%TO.N,/Vpp*%
X166370000Y-115570000D03*
D17*
%TO.P,H9,2*%
%TO.N,+5V*%
X168910000Y-115570000D03*
%TO.P,H9,3*%
%TO.N,GND*%
X171450000Y-115570000D03*
%TO.P,H9,4*%
%TO.N,Net-(H9-Pad4)*%
X173990000Y-115570000D03*
%TO.P,H9,5*%
%TO.N,Net-(H9-Pad5)*%
X176530000Y-115570000D03*
%TO.P,H9,6*%
%TO.N,Net-(H9-Pad6)*%
X179070000Y-115570000D03*
%TD*%
D14*
%TO.P,R19,2*%
%TO.N,Net-(R11-Pad1)*%
X172085000Y-102235000D03*
D15*
%TO.P,R19,1*%
%TO.N,Net-(H8-Pad1)*%
X172085000Y-92075000D03*
%TD*%
D14*
%TO.P,R18,2*%
%TO.N,Net-(R10-Pad1)*%
X169545000Y-102235000D03*
D15*
%TO.P,R18,1*%
%TO.N,Net-(H7-Pad1)*%
X169545000Y-92075000D03*
%TD*%
D14*
%TO.P,R17,2*%
%TO.N,Net-(R17-Pad2)*%
X167005000Y-102235000D03*
D15*
%TO.P,R17,1*%
%TO.N,Net-(H6-Pad1)*%
X167005000Y-92075000D03*
%TD*%
D14*
%TO.P,R16,2*%
%TO.N,Net-(R16-Pad2)*%
X164465000Y-102235000D03*
D15*
%TO.P,R16,1*%
%TO.N,Net-(H5-Pad1)*%
X164465000Y-92075000D03*
%TD*%
D18*
%TO.P,J1,S1*%
%TO.N,Net-(C3-Pad2)*%
X103336000Y-105928200D03*
X103336000Y-97278200D03*
D19*
X106716000Y-105928200D03*
X106716000Y-97278200D03*
D20*
%TO.P,J1,B6*%
%TO.N,/D+*%
X106346000Y-102028200D03*
%TO.P,J1,B1*%
%TO.N,GND*%
X106346000Y-104578200D03*
%TO.P,J1,B4*%
%TO.N,Net-(FB1-Pad2)*%
X106346000Y-103728200D03*
%TO.P,J1,B5*%
%TO.N,Net-(J1-PadB5)*%
X106346000Y-102878200D03*
%TO.P,J1,B12*%
%TO.N,GND*%
X106346000Y-98628200D03*
%TO.P,J1,B8*%
%TO.N,Net-(J1-PadB8)*%
X106346000Y-100328200D03*
%TO.P,J1,B7*%
%TO.N,/D-*%
X106346000Y-101178200D03*
%TO.P,J1,B9*%
%TO.N,Net-(FB1-Pad2)*%
X106346000Y-99478200D03*
%TO.P,J1,A12*%
%TO.N,GND*%
X107696000Y-104578200D03*
%TO.P,J1,A9*%
%TO.N,Net-(FB1-Pad2)*%
X107696000Y-103728200D03*
%TO.P,J1,A8*%
%TO.N,Net-(J1-PadA8)*%
X107696000Y-102878200D03*
%TO.P,J1,A7*%
%TO.N,/D-*%
X107696000Y-102028200D03*
%TO.P,J1,A6*%
%TO.N,/D+*%
X107696000Y-101178200D03*
%TO.P,J1,A5*%
%TO.N,Net-(J1-PadA5)*%
X107696000Y-100328200D03*
%TO.P,J1,A4*%
%TO.N,Net-(FB1-Pad2)*%
X107696000Y-99478200D03*
%TO.P,J1,A1*%
%TO.N,GND*%
X107696000Y-98628200D03*
%TD*%
D17*
%TO.P,BT1,2*%
%TO.N,GND*%
X111125000Y-84455000D03*
D16*
%TO.P,BT1,1*%
%TO.N,+5V*%
X113665000Y-84455000D03*
%TD*%
D12*
%TO.P,SW3,1*%
%TO.N,GND*%
X142875000Y-88955000D03*
%TO.P,SW3,2*%
%TO.N,Net-(R4-Pad2)*%
X142875000Y-84455000D03*
%TO.P,SW3,1*%
%TO.N,GND*%
X149375000Y-88955000D03*
%TO.P,SW3,2*%
%TO.N,Net-(R4-Pad2)*%
X149375000Y-84455000D03*
%TD*%
D11*
%TO.P,U2,3*%
%TO.N,+5V*%
X173990000Y-106680000D03*
%TO.P,U2,2*%
%TO.N,GND*%
X173990000Y-109220000D03*
%TO.P,U2,1*%
%TO.N,Net-(R14-Pad2)*%
%TA.AperFunction,ComponentPad*%
G36*
G01*
X174639800Y-112660000D02*
X173340200Y-112660000D01*
G75*
G02*
X173090000Y-112409800I0J250200D01*
G01*
X173090000Y-111110200D01*
G75*
G02*
X173340200Y-110860000I250200J0D01*
G01*
X174639800Y-110860000D01*
G75*
G02*
X174890000Y-111110200I0J-250200D01*
G01*
X174890000Y-112409800D01*
G75*
G02*
X174639800Y-112660000I-250200J0D01*
G01*
G37*
%TD.AperFunction*%
%TD*%
D14*
%TO.P,U1,20*%
%TO.N,GND*%
X118745000Y-97790000D03*
%TO.P,U1,10*%
%TO.N,Net-(R6-Pad1)*%
X141605000Y-105410000D03*
%TO.P,U1,19*%
%TO.N,/D+*%
X121285000Y-97790000D03*
%TO.P,U1,9*%
%TO.N,Net-(R11-Pad1)*%
X139065000Y-105410000D03*
%TO.P,U1,18*%
%TO.N,/D-*%
X123825000Y-97790000D03*
%TO.P,U1,8*%
%TO.N,Net-(R10-Pad1)*%
X136525000Y-105410000D03*
%TO.P,U1,17*%
%TO.N,Net-(C4-Pad1)*%
X126365000Y-97790000D03*
%TO.P,U1,7*%
%TO.N,Net-(Q1-Pad1)*%
X133985000Y-105410000D03*
%TO.P,U1,16*%
%TO.N,Net-(H9-Pad4)*%
X128905000Y-97790000D03*
%TO.P,U1,6*%
%TO.N,Net-(R16-Pad2)*%
X131445000Y-105410000D03*
%TO.P,U1,15*%
%TO.N,Net-(H9-Pad5)*%
X131445000Y-97790000D03*
%TO.P,U1,5*%
%TO.N,Net-(R17-Pad2)*%
X128905000Y-105410000D03*
%TO.P,U1,14*%
%TO.N,Net-(R14-Pad2)*%
X133985000Y-97790000D03*
%TO.P,U1,4*%
%TO.N,/Vpp*%
X126365000Y-105410000D03*
%TO.P,U1,13*%
%TO.N,Net-(R3-Pad1)*%
X136525000Y-97790000D03*
%TO.P,U1,3*%
%TO.N,Net-(LS1-Pad1)*%
X123825000Y-105410000D03*
%TO.P,U1,12*%
%TO.N,Net-(R4-Pad1)*%
X139065000Y-97790000D03*
%TO.P,U1,2*%
%TO.N,Net-(D1-Pad1)*%
X121285000Y-105410000D03*
%TO.P,U1,11*%
%TO.N,Net-(R5-Pad1)*%
X141605000Y-97790000D03*
D21*
%TO.P,U1,1*%
%TO.N,+5V*%
X118745000Y-105410000D03*
%TD*%
D12*
%TO.P,SW5,1*%
%TO.N,GND*%
X125880000Y-114245000D03*
%TO.P,SW5,2*%
%TO.N,Net-(R6-Pad2)*%
X125880000Y-118745000D03*
%TO.P,SW5,1*%
%TO.N,GND*%
X119380000Y-114245000D03*
%TO.P,SW5,2*%
%TO.N,Net-(R6-Pad2)*%
X119380000Y-118745000D03*
%TD*%
%TO.P,SW4,1*%
%TO.N,GND*%
X149375000Y-114245000D03*
%TO.P,SW4,2*%
%TO.N,Net-(R5-Pad2)*%
X149375000Y-118745000D03*
%TO.P,SW4,1*%
%TO.N,GND*%
X142875000Y-114245000D03*
%TO.P,SW4,2*%
%TO.N,Net-(R5-Pad2)*%
X142875000Y-118745000D03*
%TD*%
%TO.P,SW2,1*%
%TO.N,GND*%
X119380000Y-88955000D03*
%TO.P,SW2,2*%
%TO.N,Net-(R3-Pad2)*%
X119380000Y-84455000D03*
%TO.P,SW2,1*%
%TO.N,GND*%
X125880000Y-88955000D03*
%TO.P,SW2,2*%
%TO.N,Net-(R3-Pad2)*%
X125880000Y-84455000D03*
%TD*%
%TO.P,SW1,1*%
%TO.N,GND*%
X114935000Y-104925000D03*
%TO.P,SW1,2*%
%TO.N,Net-(R1-Pad1)*%
X110435000Y-104925000D03*
%TO.P,SW1,1*%
%TO.N,GND*%
X114935000Y-98425000D03*
%TO.P,SW1,2*%
%TO.N,Net-(R1-Pad1)*%
X110435000Y-98425000D03*
%TD*%
D14*
%TO.P,R21,2*%
%TO.N,Net-(Q2-Pad2)*%
X188595000Y-111125000D03*
D15*
%TO.P,R21,1*%
%TO.N,Net-(R17-Pad2)*%
X178435000Y-111125000D03*
%TD*%
D14*
%TO.P,R22,2*%
%TO.N,Net-(D2-Pad2)*%
X184785000Y-92075000D03*
D15*
%TO.P,R22,1*%
%TO.N,+5V*%
X174625000Y-92075000D03*
%TD*%
D14*
%TO.P,R20,2*%
%TO.N,Net-(LS1-Pad1)*%
X130175000Y-108585000D03*
D15*
%TO.P,R20,1*%
%TO.N,GND*%
X130175000Y-118745000D03*
%TD*%
D14*
%TO.P,R15,2*%
%TO.N,Net-(Q1-Pad1)*%
X161925000Y-102235000D03*
D15*
%TO.P,R15,1*%
%TO.N,Net-(H4-Pad1)*%
X161925000Y-92075000D03*
%TD*%
D14*
%TO.P,R14,2*%
%TO.N,Net-(R14-Pad2)*%
X159385000Y-102235000D03*
D15*
%TO.P,R14,1*%
%TO.N,Net-(H3-Pad1)*%
X159385000Y-92075000D03*
%TD*%
D14*
%TO.P,R13,2*%
%TO.N,Net-(H9-Pad5)*%
X156845000Y-102235000D03*
D15*
%TO.P,R13,1*%
%TO.N,Net-(H2-Pad1)*%
X156845000Y-92075000D03*
%TD*%
D14*
%TO.P,R12,2*%
%TO.N,Net-(H9-Pad4)*%
X154305000Y-102235000D03*
D15*
%TO.P,R12,1*%
%TO.N,Net-(H1-Pad1)*%
X154305000Y-92075000D03*
%TD*%
D14*
%TO.P,R10,2*%
%TO.N,Net-(D5-Pad2)*%
X159385000Y-117475000D03*
D15*
%TO.P,R10,1*%
%TO.N,Net-(R10-Pad1)*%
X159385000Y-107315000D03*
%TD*%
D14*
%TO.P,R8,2*%
%TO.N,Net-(D3-Pad2)*%
X154305000Y-117475000D03*
D15*
%TO.P,R8,1*%
%TO.N,Net-(R16-Pad2)*%
X154305000Y-107315000D03*
%TD*%
D14*
%TO.P,R7,2*%
%TO.N,Net-(Q1-Pad1)*%
X132715000Y-108585000D03*
D15*
%TO.P,R7,1*%
%TO.N,+5V*%
X132715000Y-118745000D03*
%TD*%
D14*
%TO.P,R6,2*%
%TO.N,Net-(R6-Pad2)*%
X135255000Y-118745000D03*
D15*
%TO.P,R6,1*%
%TO.N,Net-(R6-Pad1)*%
X135255000Y-108585000D03*
%TD*%
D14*
%TO.P,R5,2*%
%TO.N,Net-(R5-Pad2)*%
X137795000Y-118745000D03*
D15*
%TO.P,R5,1*%
%TO.N,Net-(R5-Pad1)*%
X137795000Y-108585000D03*
%TD*%
D14*
%TO.P,R4,2*%
%TO.N,Net-(R4-Pad2)*%
X138430000Y-84455000D03*
D15*
%TO.P,R4,1*%
%TO.N,Net-(R4-Pad1)*%
X138430000Y-94615000D03*
%TD*%
D14*
%TO.P,R3,2*%
%TO.N,Net-(R3-Pad2)*%
X135890000Y-84455000D03*
D15*
%TO.P,R3,1*%
%TO.N,Net-(R3-Pad1)*%
X135890000Y-94615000D03*
%TD*%
D14*
%TO.P,R2,2*%
%TO.N,+5V*%
X115570000Y-118745000D03*
D15*
%TO.P,R2,1*%
%TO.N,Net-(D1-Pad2)*%
X115570000Y-108585000D03*
%TD*%
D14*
%TO.P,R1,2*%
%TO.N,/Vpp*%
X113030000Y-108585000D03*
D15*
%TO.P,R1,1*%
%TO.N,Net-(R1-Pad1)*%
X113030000Y-118745000D03*
%TD*%
D22*
%TO.P,Q2,1*%
%TO.N,GND*%
X185420000Y-107315000D03*
D23*
%TO.P,Q2,3*%
%TO.N,Net-(D2-Pad1)*%
X187960000Y-107315000D03*
%TO.P,Q2,2*%
%TO.N,Net-(Q2-Pad2)*%
X186690000Y-106045000D03*
%TD*%
D11*
%TO.P,Q1,2*%
%TO.N,GND*%
X187960000Y-96520000D03*
D10*
%TO.P,Q1,1*%
%TO.N,Net-(Q1-Pad1)*%
X187960000Y-93980000D03*
%TD*%
D24*
%TO.P,MH4,1*%
%TO.N,N/C*%
X105410000Y-116840000D03*
%TD*%
%TO.P,MH3,1*%
%TO.N,N/C*%
X186690000Y-116840000D03*
%TD*%
%TO.P,MH2,1*%
%TO.N,N/C*%
X186690000Y-86360000D03*
%TD*%
%TO.P,MH1,1*%
%TO.N,N/C*%
X105410000Y-86360000D03*
%TD*%
D17*
%TO.P,H8,3*%
%TO.N,GND*%
X172085000Y-84455000D03*
%TO.P,H8,2*%
%TO.N,+5V*%
X172085000Y-86995000D03*
D16*
%TO.P,H8,1*%
%TO.N,Net-(H8-Pad1)*%
X172085000Y-89535000D03*
%TD*%
D17*
%TO.P,H7,3*%
%TO.N,GND*%
X169545000Y-84455000D03*
%TO.P,H7,2*%
%TO.N,+5V*%
X169545000Y-86995000D03*
D16*
%TO.P,H7,1*%
%TO.N,Net-(H7-Pad1)*%
X169545000Y-89535000D03*
%TD*%
D17*
%TO.P,H6,3*%
%TO.N,GND*%
X167005000Y-84455000D03*
%TO.P,H6,2*%
%TO.N,+5V*%
X167005000Y-86995000D03*
D16*
%TO.P,H6,1*%
%TO.N,Net-(H6-Pad1)*%
X167005000Y-89535000D03*
%TD*%
D17*
%TO.P,H5,3*%
%TO.N,GND*%
X164465000Y-84455000D03*
%TO.P,H5,2*%
%TO.N,+5V*%
X164465000Y-86995000D03*
D16*
%TO.P,H5,1*%
%TO.N,Net-(H5-Pad1)*%
X164465000Y-89535000D03*
%TD*%
D17*
%TO.P,H4,3*%
%TO.N,GND*%
X161925000Y-84455000D03*
%TO.P,H4,2*%
%TO.N,+5V*%
X161925000Y-86995000D03*
D16*
%TO.P,H4,1*%
%TO.N,Net-(H4-Pad1)*%
X161925000Y-89535000D03*
%TD*%
D17*
%TO.P,H3,3*%
%TO.N,GND*%
X159385000Y-84455000D03*
%TO.P,H3,2*%
%TO.N,+5V*%
X159385000Y-86995000D03*
D16*
%TO.P,H3,1*%
%TO.N,Net-(H3-Pad1)*%
X159385000Y-89535000D03*
%TD*%
D17*
%TO.P,H2,3*%
%TO.N,GND*%
X156845000Y-84455000D03*
%TO.P,H2,2*%
%TO.N,+5V*%
X156845000Y-86995000D03*
D16*
%TO.P,H2,1*%
%TO.N,Net-(H2-Pad1)*%
X156845000Y-89535000D03*
%TD*%
D17*
%TO.P,H1,3*%
%TO.N,GND*%
X154305000Y-84455000D03*
%TO.P,H1,2*%
%TO.N,+5V*%
X154305000Y-86995000D03*
D16*
%TO.P,H1,1*%
%TO.N,Net-(H1-Pad1)*%
X154305000Y-89535000D03*
%TD*%
D25*
%TO.P,FB1,2*%
%TO.N,Net-(FB1-Pad2)*%
X103505000Y-93980000D03*
D26*
%TO.P,FB1,1*%
%TO.N,+5V*%
X116205000Y-93980000D03*
%TD*%
D15*
%TO.P,C6,2*%
%TO.N,GND*%
X177800000Y-85130000D03*
D21*
%TO.P,C6,1*%
%TO.N,+5V*%
X177800000Y-87630000D03*
%TD*%
D15*
%TO.P,C5,2*%
%TO.N,GND*%
X169545000Y-104775000D03*
%TO.P,C5,1*%
%TO.N,+5V*%
X172045000Y-104775000D03*
%TD*%
%TO.P,C4,2*%
%TO.N,GND*%
X131405000Y-94615000D03*
%TO.P,C4,1*%
%TO.N,Net-(C4-Pad1)*%
X128905000Y-94615000D03*
%TD*%
%TO.P,C3,2*%
%TO.N,Net-(C3-Pad2)*%
X103545000Y-108585000D03*
%TO.P,C3,1*%
%TO.N,GND*%
X106045000Y-108585000D03*
%TD*%
%TO.P,C2,2*%
%TO.N,GND*%
X121245000Y-108585000D03*
%TO.P,C2,1*%
%TO.N,+5V*%
X118745000Y-108585000D03*
%TD*%
%TO.P,C1,2*%
%TO.N,GND*%
X111165000Y-88900000D03*
D21*
%TO.P,C1,1*%
%TO.N,+5V*%
X113665000Y-88900000D03*
%TD*%
D27*
%TO.N,Net-(Q1-Pad1)*%
X163195000Y-96520000D03*
%TD*%
D28*
%TO.N,GND*%
X107696000Y-104578200D02*
X106346000Y-104578200D01*
X107696000Y-98628200D02*
X106346000Y-98628200D01*
D29*
X154305000Y-84455000D02*
X156845000Y-84455000D01*
X156845000Y-84455000D02*
X159385000Y-84455000D01*
X159385000Y-84455000D02*
X161925000Y-84455000D01*
X161925000Y-84455000D02*
X164465000Y-84455000D01*
X164465000Y-84455000D02*
X167005000Y-84455000D01*
X167005000Y-84455000D02*
X169545000Y-84455000D01*
X169545000Y-84455000D02*
X172085000Y-84455000D01*
X177125000Y-84455000D02*
X177800000Y-85130000D01*
X172085000Y-84455000D02*
X177125000Y-84455000D01*
D30*
X111125000Y-88860000D02*
X111165000Y-88900000D01*
D29*
X111125000Y-84455000D02*
X111125000Y-88860000D01*
%TO.N,+5V*%
X113665000Y-88900000D02*
X115570000Y-88900000D01*
X113665000Y-84455000D02*
X113665000Y-88900000D01*
D30*
X132080000Y-116840000D02*
X116205000Y-116840000D01*
D29*
X115570000Y-88900000D02*
X116205000Y-88900000D01*
X116205000Y-88900000D02*
X116205000Y-93980000D01*
X175895000Y-87630000D02*
X177800000Y-87630000D01*
X175260000Y-86995000D02*
X175895000Y-87630000D01*
X175260000Y-86995000D02*
X172085000Y-86995000D01*
X172085000Y-86995000D02*
X169545000Y-86995000D01*
X169545000Y-86995000D02*
X167005000Y-86995000D01*
X167005000Y-86995000D02*
X164465000Y-86995000D01*
X164465000Y-86995000D02*
X161925000Y-86995000D01*
X161925000Y-86995000D02*
X159385000Y-86995000D01*
X159385000Y-86995000D02*
X156845000Y-86995000D01*
X156845000Y-86995000D02*
X154305000Y-86995000D01*
X118110000Y-86995000D02*
X116205000Y-88900000D01*
X154305000Y-86995000D02*
X118110000Y-86995000D01*
X115570000Y-116840000D02*
X115570000Y-118745000D01*
X115570000Y-113665000D02*
X115570000Y-116840000D01*
X118745000Y-110490000D02*
X115570000Y-113665000D01*
X118745000Y-108585000D02*
X118745000Y-110490000D01*
D30*
X132080000Y-116840000D02*
X132715000Y-117475000D01*
X132715000Y-117475000D02*
X132715000Y-118745000D01*
D31*
X172085000Y-104775000D02*
X173990000Y-106680000D01*
D28*
X172045000Y-104775000D02*
X172085000Y-104775000D01*
D30*
%TO.N,Net-(C3-Pad2)*%
X103331000Y-105933200D02*
X103336000Y-105928200D01*
D31*
X103336000Y-105928200D02*
X106716000Y-105928200D01*
X103336000Y-97278200D02*
X103336000Y-105928200D01*
X103291000Y-105973200D02*
X103336000Y-105928200D01*
X103545000Y-108585000D02*
X103545000Y-105973200D01*
%TO.N,Net-(C4-Pad1)*%
X126365000Y-97155000D02*
X126365000Y-97790000D01*
X128905000Y-94615000D02*
X126365000Y-97155000D01*
D30*
%TO.N,Net-(D1-Pad2)*%
X113665000Y-111125000D02*
X109220000Y-111125000D01*
X116205000Y-108585000D02*
X113665000Y-111125000D01*
%TO.N,Net-(D1-Pad1)*%
X121285000Y-104140000D02*
X121285000Y-105410000D01*
X113665000Y-103505000D02*
X120650000Y-103505000D01*
X109220000Y-108585000D02*
X109079399Y-108444399D01*
X113030000Y-105508145D02*
X113030000Y-104140000D01*
X120650000Y-103505000D02*
X121285000Y-104140000D01*
X110093746Y-108444399D02*
X113030000Y-105508145D01*
X109079399Y-108444399D02*
X110093746Y-108444399D01*
X113030000Y-104140000D02*
X113665000Y-103505000D01*
D28*
%TO.N,Net-(D2-Pad2)*%
X189865000Y-97790000D02*
X188595000Y-99060000D01*
X189865000Y-92710000D02*
X189865000Y-97790000D01*
X188595000Y-99060000D02*
X188595000Y-100330000D01*
X189230000Y-92075000D02*
X189865000Y-92710000D01*
X184785000Y-92075000D02*
X189230000Y-92075000D01*
%TO.N,Net-(D2-Pad1)*%
X188595000Y-102870000D02*
X188595000Y-106680000D01*
X188595000Y-106680000D02*
X187960000Y-107315000D01*
D30*
%TO.N,Net-(D3-Pad2)*%
X154305000Y-118745000D02*
X154305000Y-117475000D01*
X154940000Y-119380000D02*
X154305000Y-118745000D01*
X179070000Y-119380000D02*
X154940000Y-119380000D01*
X181610000Y-116840000D02*
X179070000Y-119380000D01*
X183515000Y-104140000D02*
X181610000Y-106045000D01*
X183515000Y-96202500D02*
X183515000Y-104140000D01*
X182562500Y-95250000D02*
X183515000Y-96202500D01*
X126365000Y-93345000D02*
X128270000Y-91440000D01*
X146050000Y-91440000D02*
X152400000Y-97790000D01*
X175260000Y-97790000D02*
X177800000Y-95250000D01*
X177800000Y-95250000D02*
X182562500Y-95250000D01*
X128270000Y-91440000D02*
X146050000Y-91440000D01*
X152400000Y-97790000D02*
X175260000Y-97790000D01*
X181610000Y-106045000D02*
X181610000Y-116840000D01*
%TO.N,Net-(D4-Pad2)*%
X178435000Y-118745000D02*
X157480000Y-118745000D01*
X180975000Y-116205000D02*
X178435000Y-118745000D01*
X180975000Y-105410000D02*
X180975000Y-116205000D01*
X182880000Y-103505000D02*
X180975000Y-105410000D01*
X149860000Y-98425000D02*
X175895000Y-98425000D01*
X182880000Y-96520000D02*
X182880000Y-103505000D01*
X182245000Y-95885000D02*
X182880000Y-96520000D01*
X156845000Y-118110000D02*
X156845000Y-117475000D01*
X144780000Y-93345000D02*
X149860000Y-98425000D01*
X178435000Y-95885000D02*
X182245000Y-95885000D01*
X175895000Y-98425000D02*
X178435000Y-95885000D01*
X157480000Y-118745000D02*
X156845000Y-118110000D01*
%TO.N,Net-(D5-Pad2)*%
X158115000Y-114935000D02*
X159385000Y-116205000D01*
X159385000Y-116205000D02*
X159385000Y-117475000D01*
X148590000Y-109855000D02*
X153670000Y-114935000D01*
X153670000Y-114935000D02*
X158115000Y-114935000D01*
X144780000Y-109855000D02*
X148590000Y-109855000D01*
%TO.N,Net-(D6-Pad2)*%
X127635000Y-109855000D02*
X126365000Y-109855000D01*
X141605000Y-107950000D02*
X138430000Y-111125000D01*
X128905000Y-111125000D02*
X127635000Y-109855000D01*
X147955000Y-107950000D02*
X141605000Y-107950000D01*
X138430000Y-111125000D02*
X128905000Y-111125000D01*
X153670000Y-113665000D02*
X147955000Y-107950000D01*
X159385000Y-113665000D02*
X153670000Y-113665000D01*
X161925000Y-116205000D02*
X159385000Y-113665000D01*
X161925000Y-117475000D02*
X161925000Y-116205000D01*
D28*
%TO.N,Net-(FB1-Pad2)*%
X105303000Y-103728200D02*
X106346000Y-103728200D01*
X104902000Y-103327200D02*
X105303000Y-103728200D01*
X106346000Y-103728200D02*
X107696000Y-103728200D01*
X106346000Y-99478200D02*
X107696000Y-99478200D01*
X106346000Y-99478200D02*
X104913800Y-99478200D01*
X104913800Y-99478200D02*
X104902000Y-99466400D01*
X104902000Y-99466400D02*
X104902000Y-103327200D01*
X104902000Y-98552000D02*
X104902000Y-99466400D01*
X104902000Y-95377000D02*
X104902000Y-98552000D01*
X103505000Y-93980000D02*
X104902000Y-95377000D01*
X103251000Y-93980000D02*
X103505000Y-93980000D01*
D30*
%TO.N,Net-(H1-Pad1)*%
X154305000Y-89535000D02*
X154305000Y-92075000D01*
%TO.N,Net-(H2-Pad1)*%
X156845000Y-89535000D02*
X156845000Y-92075000D01*
%TO.N,Net-(H3-Pad1)*%
X159385000Y-89535000D02*
X159385000Y-92075000D01*
%TO.N,Net-(H4-Pad1)*%
X161925000Y-89535000D02*
X161925000Y-92075000D01*
%TO.N,Net-(H5-Pad1)*%
X164465000Y-89535000D02*
X164465000Y-92075000D01*
%TO.N,Net-(H6-Pad1)*%
X167005000Y-89535000D02*
X167005000Y-92075000D01*
%TO.N,Net-(H7-Pad1)*%
X169545000Y-89535000D02*
X169545000Y-92075000D01*
%TO.N,Net-(H8-Pad1)*%
X172085000Y-89535000D02*
X172085000Y-92075000D01*
%TO.N,Net-(H9-Pad5)*%
X156845000Y-99695000D02*
X173355000Y-99695000D01*
X173355000Y-99695000D02*
X176530000Y-102870000D01*
X176530000Y-102870000D02*
X176530000Y-115570000D01*
X156845000Y-99695000D02*
X156845000Y-102235000D01*
X156845000Y-99695000D02*
X135890000Y-99695000D01*
X156845000Y-101600000D02*
X156845000Y-102235000D01*
X135890000Y-99695000D02*
X139065000Y-99695000D01*
X131445000Y-97790000D02*
X132715000Y-96520000D01*
X132715000Y-96520000D02*
X134620000Y-96520000D01*
X134620000Y-96520000D02*
X135255000Y-97155000D01*
X135255000Y-97155000D02*
X135255000Y-99060000D01*
X135255000Y-99060000D02*
X135890000Y-99695000D01*
%TO.N,Net-(H9-Pad4)*%
X168275000Y-109855000D02*
X172085000Y-113665000D01*
X172085000Y-113665000D02*
X173990000Y-115570000D01*
X167822553Y-100965000D02*
X168275000Y-101417447D01*
X161107447Y-100965000D02*
X167822553Y-100965000D01*
X168275000Y-101417447D02*
X168275000Y-109855000D01*
X154305000Y-103505000D02*
X154940000Y-104140000D01*
X154940000Y-104140000D02*
X159385000Y-104140000D01*
X159385000Y-104140000D02*
X160655000Y-102870000D01*
X160655000Y-102870000D02*
X160655000Y-101417447D01*
X160655000Y-101417447D02*
X161107447Y-100965000D01*
X154305000Y-102235000D02*
X154305000Y-103505000D01*
X153035000Y-100965000D02*
X154305000Y-102235000D01*
X129540000Y-100965000D02*
X153035000Y-100965000D01*
X128905000Y-100330000D02*
X129540000Y-100965000D01*
X128905000Y-97790000D02*
X128905000Y-100330000D01*
%TO.N,/Vpp*%
X126365000Y-107315000D02*
X126365000Y-105410000D01*
X126365000Y-107315000D02*
X114300000Y-107315000D01*
X114300000Y-107315000D02*
X113030000Y-108585000D01*
X163830000Y-115570000D02*
X166370000Y-115570000D01*
X137795000Y-110490000D02*
X140970000Y-107315000D01*
X160655000Y-112395000D02*
X163830000Y-115570000D01*
X140970000Y-107315000D02*
X148590000Y-107315000D01*
X129540000Y-110490000D02*
X137795000Y-110490000D01*
X148590000Y-107315000D02*
X153670000Y-112395000D01*
X153670000Y-112395000D02*
X160655000Y-112395000D01*
X126365000Y-107315000D02*
X129540000Y-110490000D01*
%TO.N,Net-(LS1-Pad1)*%
X123825000Y-105410000D02*
X123825000Y-104140000D01*
X124460000Y-103505000D02*
X127635000Y-103505000D01*
X123825000Y-104140000D02*
X124460000Y-103505000D01*
X127635000Y-106680000D02*
X129540000Y-108585000D01*
X127635000Y-103505000D02*
X127635000Y-106680000D01*
X130175000Y-108585000D02*
X129540000Y-108585000D01*
X145415000Y-99060000D02*
X177165000Y-99060000D01*
X134620000Y-93345000D02*
X139700000Y-93345000D01*
X131445000Y-96520000D02*
X134620000Y-93345000D01*
X177165000Y-99060000D02*
X178435000Y-97790000D01*
X139700000Y-93345000D02*
X145415000Y-99060000D01*
X128270000Y-96520000D02*
X131445000Y-96520000D01*
X178435000Y-97790000D02*
X180340000Y-97790000D01*
X127635000Y-97155000D02*
X128270000Y-96520000D01*
X127635000Y-103505000D02*
X127635000Y-97155000D01*
%TO.N,Net-(Q1-Pad1)*%
X133985000Y-106680000D02*
X132715000Y-107950000D01*
X132715000Y-107950000D02*
X132715000Y-108585000D01*
X133985000Y-105410000D02*
X133985000Y-106680000D01*
X165735000Y-93980000D02*
X163195000Y-96520000D01*
X187960000Y-93980000D02*
X165735000Y-93980000D01*
X161925000Y-102870000D02*
X161925000Y-102235000D01*
X158115000Y-106680000D02*
X161925000Y-102870000D01*
X158115000Y-107835601D02*
X158115000Y-106680000D01*
X153670000Y-108585000D02*
X157365601Y-108585000D01*
X147955000Y-102870000D02*
X153670000Y-108585000D01*
X133985000Y-105410000D02*
X133985000Y-103505000D01*
X134620000Y-102870000D02*
X147955000Y-102870000D01*
X157365601Y-108585000D02*
X158115000Y-107835601D01*
X133985000Y-103505000D02*
X134620000Y-102870000D01*
%TO.N,Net-(Q2-Pad2)*%
X186690000Y-106045000D02*
X186690000Y-109220000D01*
X186690000Y-109220000D02*
X188595000Y-111125000D01*
%TO.N,Net-(R1-Pad1)*%
X113030000Y-118110000D02*
X113030000Y-118745000D01*
X107315000Y-112395000D02*
X113030000Y-118110000D01*
X110435000Y-104925000D02*
X110435000Y-105782500D01*
X107315000Y-107950000D02*
X107315000Y-112395000D01*
X108585000Y-106680000D02*
X107315000Y-107950000D01*
X109537500Y-106680000D02*
X108585000Y-106680000D01*
X110435000Y-105782500D02*
X109537500Y-106680000D01*
%TO.N,Net-(R3-Pad2)*%
X136470000Y-84400000D02*
X136525000Y-84455000D01*
X135890000Y-84455000D02*
X125880000Y-84455000D01*
X125880000Y-84455000D02*
X119380000Y-84455000D01*
%TO.N,Net-(R3-Pad1)*%
X135890000Y-94615000D02*
X136525000Y-95250000D01*
X136525000Y-95250000D02*
X136525000Y-97790000D01*
%TO.N,Net-(R4-Pad2)*%
X149375000Y-84455000D02*
X142875000Y-84455000D01*
X138430000Y-84455000D02*
X142875000Y-84455000D01*
%TO.N,Net-(R4-Pad1)*%
X138430000Y-94615000D02*
X139065000Y-95250000D01*
X139065000Y-95250000D02*
X139065000Y-97790000D01*
%TO.N,Net-(R5-Pad2)*%
X149375000Y-118800000D02*
X142875000Y-118800000D01*
X138485000Y-118800000D02*
X138430000Y-118745000D01*
X142875000Y-118800000D02*
X138485000Y-118800000D01*
%TO.N,Net-(R6-Pad2)*%
X119380000Y-118745000D02*
X125880000Y-118745000D01*
X128905000Y-120015000D02*
X134620000Y-120015000D01*
X127635000Y-118745000D02*
X128905000Y-120015000D01*
X125880000Y-118745000D02*
X127635000Y-118745000D01*
X134620000Y-120015000D02*
X135255000Y-119380000D01*
X135255000Y-119380000D02*
X135255000Y-118745000D01*
%TO.N,Net-(R6-Pad1)*%
X137160000Y-106680000D02*
X135255000Y-108585000D01*
X140335000Y-106680000D02*
X137160000Y-106680000D01*
X141605000Y-105410000D02*
X140335000Y-106680000D01*
%TO.N,Net-(R14-Pad2)*%
X172085000Y-111760000D02*
X173990000Y-111760000D01*
X154305000Y-100330000D02*
X155575000Y-101600000D01*
X159385000Y-102870000D02*
X159385000Y-102235000D01*
X133985000Y-99695000D02*
X134620000Y-100330000D01*
X134620000Y-100330000D02*
X154305000Y-100330000D01*
X155575000Y-101600000D02*
X155575000Y-102870000D01*
X133985000Y-97790000D02*
X133985000Y-99695000D01*
X155575000Y-102870000D02*
X156210000Y-103505000D01*
X156210000Y-103505000D02*
X158750000Y-103505000D01*
X158750000Y-103505000D02*
X159385000Y-102870000D01*
X160020000Y-100330000D02*
X170045053Y-100330000D01*
X170815000Y-101099947D02*
X170815000Y-110490000D01*
X159385000Y-102235000D02*
X159385000Y-100965000D01*
X170045053Y-100330000D02*
X170815000Y-101099947D01*
X159385000Y-100965000D02*
X160020000Y-100330000D01*
X170815000Y-110490000D02*
X172085000Y-111760000D01*
%TO.N,/D+*%
X107457453Y-101178200D02*
X107696000Y-101178200D01*
X106346000Y-102028200D02*
X106607453Y-102028200D01*
X106607453Y-102028200D02*
X107457453Y-101178200D01*
X121539000Y-97790000D02*
X121285000Y-97790000D01*
X123190000Y-99441000D02*
X121539000Y-97790000D01*
X123190000Y-100711000D02*
X123190000Y-99441000D01*
X107841600Y-101323800D02*
X122577200Y-101323800D01*
X122577200Y-101323800D02*
X123190000Y-100711000D01*
X107696000Y-101178200D02*
X107841600Y-101323800D01*
D32*
%TO.N,/D-*%
X123698000Y-97917000D02*
X123825000Y-97790000D01*
D30*
X123825000Y-100965000D02*
X123825000Y-97790000D01*
X122907400Y-101882600D02*
X123825000Y-100965000D01*
X107841600Y-101882600D02*
X122907400Y-101882600D01*
X107696000Y-102028200D02*
X107841600Y-101882600D01*
%TO.N,Net-(R10-Pad1)*%
X159385000Y-108585000D02*
X159385000Y-107315000D01*
X136525000Y-105410000D02*
X136525000Y-104140000D01*
X153670000Y-109855000D02*
X158115000Y-109855000D01*
X147320000Y-103505000D02*
X153670000Y-109855000D01*
X137160000Y-103505000D02*
X147320000Y-103505000D01*
X158115000Y-109855000D02*
X159385000Y-108585000D01*
X136525000Y-104140000D02*
X137160000Y-103505000D01*
%TO.N,Net-(R11-Pad1)*%
X161925000Y-108585000D02*
X161925000Y-107315000D01*
X153670000Y-111125000D02*
X159385000Y-111125000D01*
X159385000Y-111125000D02*
X161925000Y-108585000D01*
X146685000Y-104140000D02*
X153670000Y-111125000D01*
X139700000Y-104140000D02*
X146685000Y-104140000D01*
X139065000Y-104775000D02*
X139700000Y-104140000D01*
X139065000Y-105410000D02*
X139065000Y-104775000D01*
%TO.N,Net-(R16-Pad2)*%
X132080000Y-102235000D02*
X149225000Y-102235000D01*
X131445000Y-102870000D02*
X132080000Y-102235000D01*
X149225000Y-102235000D02*
X154305000Y-107315000D01*
X131445000Y-105410000D02*
X131445000Y-102870000D01*
%TO.N,Net-(R17-Pad2)*%
X151130000Y-101600000D02*
X155575000Y-106045000D01*
X155575000Y-106045000D02*
X156845000Y-107315000D01*
X129540000Y-101600000D02*
X151130000Y-101600000D01*
X128905000Y-102235000D02*
X129540000Y-101600000D01*
X128905000Y-105410000D02*
X128905000Y-102235000D01*
X177800000Y-113665000D02*
X178435000Y-113030000D01*
X177165000Y-117475000D02*
X177800000Y-116840000D01*
X167640000Y-116840000D02*
X168275000Y-117475000D01*
X177800000Y-116840000D02*
X177800000Y-113665000D01*
X167640000Y-111125000D02*
X167640000Y-116840000D01*
X178435000Y-113030000D02*
X178435000Y-111125000D01*
X167005000Y-102235000D02*
X167005000Y-110490000D01*
X167005000Y-110490000D02*
X167640000Y-111125000D01*
X168275000Y-117475000D02*
X177165000Y-117475000D01*
%TD*%
M02*
