M48
; DRILL file {KiCad (5.1.10-1-10_14)} date Monday, May 17, 2021 at 11:03:24 PM
; FORMAT={-:-/ absolute / inch / decimal}
; #@! TF.CreationDate,2021-05-17T23:03:24-04:00
; #@! TF.GenerationSoftware,Kicad,Pcbnew,(5.1.10-1-10_14)
FMAT,2
INCH
T1C0.0157
T2C0.0160
T3C0.0236
T4C0.0295
T5C0.0315
T6C0.0354
T7C0.0394
T8C0.0433
T9C0.0472
T10C0.1260
%
G90
G05
T1
X4.1869Y-3.883
X4.1869Y-3.9165
X4.1869Y-3.9499
X4.1869Y-3.9834
X4.1869Y-4.0169
X4.1869Y-4.0503
X4.1869Y-4.0838
X4.1869Y-4.1173
X4.24Y-3.883
X4.24Y-3.9165
X4.24Y-3.9499
X4.24Y-3.9834
X4.24Y-4.0169
X4.24Y-4.0503
X4.24Y-4.0838
X4.24Y-4.1173
T2
X6.425Y-3.8
T4
X7.3Y-4.225
X7.35Y-4.175
X7.4Y-4.225
T5
X4.0766Y-4.275
X4.175Y-4.275
X4.3766Y-3.5
X4.45Y-4.275
X4.45Y-4.675
X4.475Y-3.5
X4.55Y-4.275
X4.55Y-4.675
X4.675Y-3.85
X4.675Y-4.15
X4.675Y-4.275
X4.7734Y-4.275
X4.775Y-3.85
X4.775Y-4.15
X4.875Y-3.85
X4.875Y-4.15
X4.975Y-3.85
X4.975Y-4.15
X5.075Y-3.725
X5.075Y-3.85
X5.075Y-4.15
X5.125Y-4.275
X5.125Y-4.675
X5.1734Y-3.725
X5.175Y-3.85
X5.175Y-4.15
X5.225Y-4.275
X5.225Y-4.675
X5.275Y-3.85
X5.275Y-4.15
X5.325Y-4.275
X5.325Y-4.675
X5.35Y-3.325
X5.35Y-3.725
X5.375Y-3.85
X5.375Y-4.15
X5.425Y-4.275
X5.425Y-4.675
X5.45Y-3.325
X5.45Y-3.725
X5.475Y-3.85
X5.475Y-4.15
X5.575Y-3.85
X5.575Y-4.15
X6.075Y-3.625
X6.075Y-4.025
X6.075Y-4.225
X6.075Y-4.625
X6.175Y-3.625
X6.175Y-4.025
X6.175Y-4.225
X6.175Y-4.625
X6.275Y-3.625
X6.275Y-4.025
X6.275Y-4.225
X6.275Y-4.625
X6.375Y-3.625
X6.375Y-4.025
X6.375Y-4.225
X6.375Y-4.625
X6.475Y-3.625
X6.475Y-4.025
X6.575Y-3.625
X6.575Y-4.025
X6.675Y-3.625
X6.675Y-4.025
X6.675Y-4.125
X6.7734Y-4.125
X6.775Y-3.625
X6.775Y-4.025
X6.875Y-3.625
X7.0Y-3.3516
X7.0Y-3.45
X7.025Y-4.375
X7.275Y-3.625
X7.425Y-4.375
T6
X4.3Y-4.275
X4.3Y-4.375
X4.875Y-3.675
X4.875Y-4.325
X4.975Y-3.675
X4.975Y-4.325
X5.6Y-3.675
X5.6Y-4.325
X5.7Y-3.675
X5.7Y-4.325
X6.85Y-4.2
X6.85Y-4.3
X6.85Y-4.4
X7.4Y-3.7
X7.4Y-3.8
X7.425Y-3.95
X7.425Y-4.05
T7
X4.375Y-3.325
X4.475Y-3.325
X6.075Y-3.325
X6.075Y-3.425
X6.075Y-3.525
X6.175Y-3.325
X6.175Y-3.425
X6.175Y-3.525
X6.275Y-3.325
X6.275Y-3.425
X6.275Y-3.525
X6.375Y-3.325
X6.375Y-3.425
X6.375Y-3.525
X6.475Y-3.325
X6.475Y-3.425
X6.475Y-3.525
X6.55Y-4.55
X6.575Y-3.325
X6.575Y-3.425
X6.575Y-3.525
X6.65Y-4.55
X6.675Y-3.325
X6.675Y-3.425
X6.675Y-3.525
X6.75Y-4.55
X6.775Y-3.325
X6.775Y-3.425
X6.775Y-3.525
X6.85Y-4.55
X6.95Y-4.55
X7.05Y-4.55
X7.1Y-3.85
X7.1Y-4.0469
T8
X4.3478Y-3.875
X4.3478Y-4.1309
X4.525Y-3.875
X4.525Y-4.1309
X4.7Y-3.325
X4.7Y-3.5022
X4.7Y-4.4978
X4.7Y-4.675
X4.9559Y-3.325
X4.9559Y-3.5022
X4.9559Y-4.4978
X4.9559Y-4.675
X5.625Y-3.325
X5.625Y-3.5022
X5.625Y-4.4978
X5.625Y-4.675
X5.8809Y-3.325
X5.8809Y-3.5022
X5.8809Y-4.4978
X5.8809Y-4.675
T9
X4.075Y-3.7
X4.575Y-3.7
T10
X4.15Y-3.4
X4.15Y-4.6
X7.35Y-3.4
X7.35Y-4.6
T3
G00X4.0841Y-3.8299
M15
G01X4.0526Y-3.8299
M16
G05
G00X4.0841Y-4.1704
M15
G01X4.0526Y-4.1704
M16
G05
G00X4.2309Y-3.8299
M15
G01X4.1719Y-3.8299
M16
G05
G00X4.2309Y-4.1704
M15
G01X4.1719Y-4.1704
M16
G05
T0
M30
